<svg xmlns="http://www.w3.org/2000/svg" viewBox="0 0 60 60"><title>Creators.co</title><path fill="#fff" d="M37.8 58.3c8-.4 16.5-4.8 22.2-11.3L49.7 35.4 41.6 37c-1.7 1.9-3.8 3.6-5.8 4.7.6.1 1.2.1 1.8.1 2 0 4.4-.7 6.6-2l7.8 8.8c-3.8 4.4-8.9 7.8-14.2 9.7zM21.5 39.8c2 2.3 4.8 3.7 8 3.7 1.9 0 4.2-.6 6.3-1.8-5.5-.9-9.4-6.1-9.4-13 0-4.9 2-8.9 5.1-11.1-.3-.1-.7-.1-1-.2-.3 0-.7-.1-1-.1-6.5 0-11.1 5.4-11.1 13-.1 3.9 1.1 7.2 3.1 9.5zm29.7-28.5C45.6 5.4 37 1.6 29.1 1.6c-.8 0-1.7 0-2.5.1C29.9.6 33.5 0 37.2 0 45.5 0 54.5 4.1 60 10.4L49.7 23.3 41.6 25l4.5-5.6h.1l5.8-7.3-.8-.8zm-19.7 6.3c3.6.8 7.4 3.5 10.1 7.4l4.5-5.6c-2.7-2.3-5.8-3.6-8.6-3.6-2.2-.1-4.3.6-6 1.8zM26.7 1.8C11.1 3 0 14.7 0 30.6 0 47.6 12 60 28.5 60c3 0 6.2-.6 9.2-1.7h-1.2C20.1 58.3 8.1 45.9 8.1 29c0-13 7.4-23.3 18.6-27.2z"/></svg>